<svg xmlns="http://www.w3.org/2000/svg" viewBox="285 160 700 700" width="512" height="512">
  <defs>
    <linearGradient id="gold" x1="0" y1="0" x2="1" y2="0">
      <stop offset="0" stop-color="#7a520e"/>
      <stop offset="0.22" stop-color="#c38d27"/>
      <stop offset="0.45" stop-color="#f7d97c"/>
      <stop offset="0.55" stop-color="#fff1be"/>
      <stop offset="0.75" stop-color="#d6a13a"/>
      <stop offset="1" stop-color="#855a10"/>
    </linearGradient>
    <linearGradient id="goldV" x1="0" y1="0" x2="0" y2="1">
      <stop offset="0" stop-color="#fbe39a"/>
      <stop offset="0.5" stop-color="#d4a03a"/>
      <stop offset="1" stop-color="#8a5d12"/>
    </linearGradient>
    <radialGradient id="bowl" cx="0.42" cy="0.38" r="0.7">
      <stop offset="0" stop-color="#fff6d0"/>
      <stop offset="0.25" stop-color="#f3cf6b"/>
      <stop offset="0.65" stop-color="#b98424"/>
      <stop offset="1" stop-color="#6e4a0c"/>
    </radialGradient>
    <filter id="shadow" x="-20%" y="-20%" width="140%" height="140%">
      <feDropShadow dx="3" dy="5" stdDeviation="5" flood-color="#000" flood-opacity="0.35"/>
    </filter>
  </defs>
  <g transform="translate(635 510) scale(0.86) translate(-635 -510)">

  <!-- Key -->
  <g transform="translate(600 525) rotate(46.6)">
    <!-- bow -->
    <path fill-rule="evenodd" fill="url(#gold)" d="M-82 -322 A82 82 0 1 0 82 -322 A82 82 0 1 0 -82 -322 Z M-27.1 -337.7 A29 29 0 1 1 27.1 -337.7 A29 29 0 1 1 0 -291.3 A29 29 0 1 1 -27.1 -337.7 Z"/>
    <circle cx="46" cy="-400" r="18" fill="none" stroke="url(#gold)" stroke-width="12"/>
    <!-- collar -->
    <circle cx="0" cy="-230" r="20" fill="url(#gold)"/>
    <rect x="-30" y="-214" width="60" height="12" rx="5" fill="url(#gold)"/>
    <rect x="-22" y="-202" width="44" height="10" rx="4" fill="url(#gold)"/>
    <!-- shaft -->
    <rect x="-13" y="-196" width="26" height="512" rx="13" fill="url(#gold)"/>
    <!-- bit -->
    <path d="M13 165 H70 V190 H50 V205 H95 V235 H60 V250 H80 V290 H13 Z" fill="url(#gold)"/>
  </g>

  <!-- Spoon -->
  <g transform="translate(600 525) rotate(-40)" filter="url(#shadow)">
    <path d="M-12 -150 C-9 -110 -8 -60 -9 0 C-10 100 -26 220 -28 290 C-30 340 -18 365 0 365 C18 365 30 340 28 290 C26 220 10 100 9 0 C8 -60 9 -110 12 -150 Z" fill="url(#gold)"/>
    <path d="M-14 292 C-15 250 -7 190 -3 120 L3 120 C7 190 15 250 14 292 C14 330 7 345 0 345 C-7 345 -14 330 -14 292 Z" fill="none" stroke="#fbe7a4" stroke-opacity="0.55" stroke-width="2"/>
    <path d="M0 -425 C60 -425 92 -360 90 -295 C88 -230 50 -170 12 -150 L-12 -150 C-50 -170 -88 -230 -90 -295 C-92 -360 -60 -425 0 -425 Z" fill="url(#goldV)"/>
    <path d="M0 -413 C52 -413 80 -356 78 -297 C76 -238 44 -184 0 -168 C-44 -184 -76 -238 -78 -297 C-80 -356 -52 -413 0 -413 Z" fill="url(#bowl)"/>
  </g>
  </g>
</svg>
